<svg stroke-width="5" stroke="rgba(0, 255, 0, .1)" fill="rgba(255,255,255,0.2)" height="100%" width="100%"  preserveAspectRatio="none">
    <path 
        d="
        M 0 50, 50 50
        a 10,10 0 1,0 20,0
        a 10,10 0 1,0 -20,0

        m 15 6, 50 120
        a 10,10 0 1,0 20, 0
        a 10,10 0 1,0 -20, 0

        m 20 0, 300 0
        a 10,10 0 1,0 20, 0
        a 10,10 0 1,0 -20, 0

        m 15 10, 100 200
        a 10,10 0 1,0 20, 0
        a 10,10 0 1,0 -20, 0

        m 20 0, 800 0
        a 10,10 0 1,0 20,0
        a 10,10 0 1,0 -20,0

        m 15 10, 100 200
        a 10,10 0 1,0 20,0
        a 10,10 0 1,0 -20,0

        m 20 0, 20 20
        "
    />
</svg>
